<svg xmlns="http://www.w3.org/2000/svg" xmlns:xlink="http://www.w3.org/1999/xlink" viewBox="0 0 500 500"><defs><clipPath id="clip-path--inject-1"><path d="M333.63,257.32c-6.19-5.25-12.29-10.14-14.78-11.15-9.47-3.83-25.38,19.25-30.63,24.94-6,6.45-27,22.33-33,34.73s-6.45,18.86,1.74,22.09,17.86-3.23,24.32-6.95c3.94-2.28,11-7.8,16-11.75-4,16.89-9.17,37.47-13.48,50.91-7.4,23-23.83,54.55-27.76,62h10.06c3.19-6.78,17.17-36.32,24.4-48.46,8.19-13.76,30-63.8,39-80.81s17.37-23,17.37-23S339.84,262.57,333.63,257.32Z" style="fill:#a1a1a1;stroke:#263238;stroke-linecap:round;stroke-linejoin:round"></path></clipPath><clipPath id="clip-path-2--inject-1"><path d="M371.6,205.85s-20.85,12.4-21.34,16.62-.5,5.21-3,7.2-13.4,5-13.15,8.68a15.76,15.76,0,0,0,2.48,7s-1.58,2.54-1.58,3.53,2.73,8.51,2.73,8.51-4.87-.13-4.87,1.11v2.48s-2,4-2.24,6.45,1.49,2.49,4.47,4a89.31,89.31,0,0,0,9.18,3.48l-4.46,21.34L374.33,281l8.93-9.18s13.15-3.47,22.08-10.92,9.18-27.79,5.71-37.71-21.84-17.62-28.78-18.61-18.12-.25-18.12-.25Z" style="fill:#fff;stroke:#263238;stroke-linecap:round;stroke-linejoin:round"></path></clipPath><clipPath id="clip-path-3--inject-1"><path d="M381.75,422.11c-1.55-5.71-5.84-24-3-41.21,3.48-20.76,27.3-53.79,26.3-65.29s-23.34-31.29-23.34-31.29A119,119,0,0,0,351,316.11c-13.15,20.26-27.29,45.78-27.29,69,0,18.6-.32,32.23-.45,37Z" style="fill:#a1a1a1;stroke:#263238;stroke-linecap:round;stroke-linejoin:round"></path></clipPath><clipPath id="clip-path-4--inject-1"><path d="M279.79,314.76s18.36-50.12,18.61-52.85-25.81-3.47-25.81-3.47-17.62,34-22.08,45.65-2.73,20.6,4.46,22.83a22.69,22.69,0,0,0,13.9-.49" style="fill:#a1a1a1;stroke:#263238;stroke-linecap:round;stroke-linejoin:round"></path></clipPath><clipPath id="clip-path-5--inject-1"><path d="M383.75,319s-7.44,3-9.42,7.19-16.38,29-16.38,29l-4,.75-.25,1.24s-20.84-25.06-22.33-27a33.68,33.68,0,0,1-2.73-4.46L311.8,338.35S325,358.7,335.87,374.58s21.09,25.55,25.06,22.83,47.39-62.29,51.61-69.73-2.73-13.9-8.69-18.86-8.19-7.19-8.19-7.19" style="fill:#a1a1a1;stroke:#263238;stroke-linecap:round;stroke-linejoin:round"></path></clipPath><clipPath id="clip-path-6--inject-1"><path d="M159.88,181.55s-8,.48-22.68.48-19.06,7.48-19.55,18.58,9.41,82.52,9.41,86.62.25,8.93,28,11.34,51.69-6.47,53.62-9.13-4.88-25.61-4.15-28.75,7-16.17,6-29.2-4.83-27.26-7.72-36.91-8-12.55-13.51-13S159.88,181.55,159.88,181.55Z" style="fill:#fff;stroke:#263238;stroke-linecap:round;stroke-linejoin:round"></path></clipPath><clipPath id="clip-path-7--inject-1"><path d="M156.74,181.31c.73,1-1.69,25.09-.24,48.49s3.86,73.11,3.62,87.83,1.21,28.23,0,28.71-12.3-.72-22.92-2.41-21-3.62-21.72-6-.72-8.45-1.2-9.17-5.31-3.86-4.1-11.58,8-20.27,8-25.82-1-36.19-3.86-60.32-4.1-38.6,2.17-44.64,20.51-5.06,27.26-5.3A128.44,128.44,0,0,1,156.74,181.31Z" style="fill:#FF725E;stroke:#263238;stroke-linecap:round;stroke-linejoin:round"></path></clipPath><clipPath id="clip-path-8--inject-1"><path d="M184,180.82s15.68,26.06,20.51,45.12,3.86,31.37,3.86,54.78-6.52,59.11-5.55,61.28,6.75-.24,8-1.45,8.2-5.06,9.17-9.41.72-5.79,1-8.92,1.93,0,1.21-14-6-28.47-6-45.6-2.41-43.19-2.41-43.19,23.88,15.92,30.16,20,19.06,4.82,23.88-1.21.73-19.54-6.75-24.37-28.72-12.31-37.4-18.58-10.86-12.55-18.34-14.72S184,180.82,184,180.82Z" style="fill:#FF725E;stroke:#263238;stroke-linecap:round;stroke-linejoin:round"></path></clipPath><clipPath id="clip-path-9--inject-1"><path d="M163,103.85a56.84,56.84,0,0,0-9.78,2.89c-4.17,1.9-8.42,5.45-14.75,14.12-9.17,12.54-5.79,32.09,2.17,40.05a67.82,67.82,0,0,0,18,12.43s-.24,10.14,0,13,18.1,33.06,21.24,29.92,4.34-28,4.34-28l1.93-16.16S198.08,154,197.59,142c-.24-6-4.15-11.42-6.64-18.65s-4.39-10.38-8.15-13.9C177,104,168.47,103.28,163,103.85Z" style="fill:#fff;stroke:#263238;stroke-linecap:round;stroke-linejoin:round"></path></clipPath><clipPath id="clip-path-10--inject-1"><path d="M152.24,153.43s-3.13-5.31-8.2-1.93-2.9,8.93,2.17,12.31,8.93,1.93,9.65-1.69" style="fill:#fff;stroke:#263238;stroke-linecap:round;stroke-linejoin:round"></path></clipPath><clipPath id="clip-path-11--inject-1"><path d="M154.57,198.92s1.45-11.82.73-18.82-.49-12.79,1-14,13.27-8,14.48-6.28a8.56,8.56,0,0,1,1.44,3.38s2.9,1.69,2.9,3.38v2.65a10.54,10.54,0,0,1,1.45,4.1c0,1.69.24,9.9-.48,10.38s-2.18,0-2.9-1.21-4.1.49-4.1.49,2.17,8.68.24,12.3-9.41,13-9.41,13l-6.27-8.2Z" style="fill:#fff;stroke:#263238;stroke-linecap:round;stroke-linejoin:round"></path></clipPath><clipPath id="clip-path-12--inject-1"><path d="M116.93,238.49l28.85-32.31a1.84,1.84,0,0,1,2.68-.05l9.47,9.86a1.82,1.82,0,0,1,.22,2.24c-2.89,4.57-13.54,21.31-23.85,35.94-12.06,17.14-17.37,23.89-22.44,25.82s-8.2-4.58-8-13.75,4.1-21,4.1-21" style="fill:#FF725E;stroke:#263238;stroke-linecap:round;stroke-linejoin:round"></path></clipPath></defs><g id="background-simple--inject-1"><path d="M447.68,254c-17.06,44.05-56.94,77.48-98.38,93.38-32.17,12.34-66.4,11.13-100.51.52-32.37-10.06-62.13-26.37-95.34-19-26.08,5.78-55.48,14.05-79-9.75-11.77-11.88-19.58-28-24.74-44.5-16.37-52.37-8.15-107.78,26.9-142.16,30-29.45,73-43.65,114.39-41.13a134.51,134.51,0,0,1,23.59,3.49c20.46,5,42.79,12.78,63.79,10,24.74-3.33,41.91-22.14,64.45-30.77,23.28-8.91,47.42,1.62,66,21.69C447.57,137.65,468.24,200.86,447.68,254Z" style="fill:#FF725E"></path><path d="M447.68,254c-17.06,44.05-56.94,77.48-98.38,93.38-32.17,12.34-66.4,11.13-100.51.52-32.37-10.06-62.13-26.37-95.34-19-26.08,5.78-55.48,14.05-79-9.75-11.77-11.88-19.58-28-24.74-44.5-16.37-52.37-8.15-107.78,26.9-142.16,30-29.45,73-43.65,114.39-41.13a134.51,134.51,0,0,1,23.59,3.49c20.46,5,42.79,12.78,63.79,10,24.74-3.33,41.91-22.14,64.45-30.77,23.28-8.91,47.42,1.62,66,21.69C447.57,137.65,468.24,200.86,447.68,254Z" style="fill:#fff;opacity:0.7000000000000001"></path></g><g id="character-1--inject-1"><path d="M141.94,154c-.61.23-4.11,1.08-13,4.33s-8.87,17.94,4.1,23.13,22.49,4.11,24.87-8.43S148.21,151.67,141.94,154Z" style="fill:#263238;stroke:#263238;stroke-linecap:round;stroke-linejoin:round"></path><path d="M210.09,227.11s3.14,48.38,4.84,58.63,2,41,.29,43.55-10.82,6.83-14.23,4.84-5.7-65.47-8-82.54,2.84-28.75,9.67-28.75S210.09,227.11,210.09,227.11Z" style="fill:#fff;stroke:#263238;stroke-linecap:round;stroke-linejoin:round"></path><path d="M127.06,287.23a155.36,155.36,0,0,0-9.19,54.39c.58,29.79,11.1,80.16,11.1,80.16h81.19s9.63-49.2,9.05-86-13.73-51.11-13.73-51.11S168.68,296.51,127.06,287.23Z" style="fill:#263238;stroke:#263238;stroke-linecap:round;stroke-linejoin:round"></path><path d="M159.88,181.55s-8,.48-22.68.48-19.06,7.48-19.55,18.58,9.41,82.52,9.41,86.62.25,8.93,28,11.34,51.69-6.47,53.62-9.13-4.88-25.61-4.15-28.75,7-16.17,6-29.2-4.83-27.26-7.72-36.91-8-12.55-13.51-13S159.88,181.55,159.88,181.55Z" style="fill:#fff"></path><g style="clip-path:url(#clip-path-6--inject-1)"><path d="M208.67,289.44c1.93-2.65-4.88-25.61-4.15-28.75s7-16.17,6-29.2-4.83-27.26-7.72-36.91-8-12.55-13.51-13c-.77-.07-1.9-.12-3.25-.15l-.57,1.6s17,35.5,17,46-10.5,18.5-8,29,7,21.5,7,26.5-10,9-16.5,12a2.31,2.31,0,0,0-1.08.9C197.76,295.15,207.47,291.09,208.67,289.44Z" style="opacity:0.2"></path></g><path d="M159.88,181.55s-8,.48-22.68.48-19.06,7.48-19.55,18.58,9.41,82.52,9.41,86.62.25,8.93,28,11.34,51.69-6.47,53.62-9.13-4.88-25.61-4.15-28.75,7-16.17,6-29.2-4.83-27.26-7.72-36.91-8-12.55-13.51-13S159.88,181.55,159.88,181.55Z" style="fill:none;stroke:#263238;stroke-linecap:round;stroke-linejoin:round"></path><path d="M156.74,181.31c.73,1-1.69,25.09-.24,48.49s3.86,73.11,3.62,87.83,1.21,28.23,0,28.71-12.3-.72-22.92-2.41-21-3.62-21.72-6-.72-8.45-1.2-9.17-5.31-3.86-4.1-11.58,8-20.27,8-25.82-1-36.19-3.86-60.32-4.1-38.6,2.17-44.64,20.51-5.06,27.26-5.3A128.44,128.44,0,0,1,156.74,181.31Z" style="fill:#FF725E"></path><g style="clip-path:url(#clip-path-7--inject-1)"><path d="M115.69,244.82c1,11.48,1.64,23.1,2,32,6.21,1.76,11.89,2.13,14.8-.78,5.46-5.46,17.31-18.35,25.1-26.87-.39-7.32-.77-14-1.1-19.33s-.45-10.39-.47-15.39l-1.88-2.36Z" style="opacity:0.2"></path><path d="M157.5,315s-.5,8.19-6.5,10c-7.89,2.39-38.5.5-35,2s30,6,33.5,7,5,1.5,6-2S157.5,315,157.5,315Z" style="opacity:0.2"></path></g><path d="M156.74,181.31c.73,1-1.69,25.09-.24,48.49s3.86,73.11,3.62,87.83,1.21,28.23,0,28.71-12.3-.72-22.92-2.41-21-3.62-21.72-6-.72-8.45-1.2-9.17-5.31-3.86-4.1-11.58,8-20.27,8-25.82-1-36.19-3.86-60.32-4.1-38.6,2.17-44.64,20.51-5.06,27.26-5.3A128.44,128.44,0,0,1,156.74,181.31Z" style="fill:none;stroke:#263238;stroke-linecap:round;stroke-linejoin:round"></path><path d="M137.2,182a29.68,29.68,0,0,0-17.13,0c-8.69,2.9-14.48,11.58-15.69,23.41s-2.17,57.18-1.2,63.94,2.89,13,8.68,10.61,16.65-24.13,19.79-31.61-1-45.84-1-45.84" style="fill:#FF725E;stroke:#263238;stroke-linecap:round;stroke-linejoin:round"></path><path d="M184,180.82s15.68,26.06,20.51,45.12,3.86,31.37,3.86,54.78-6.52,59.11-5.55,61.28,6.75-.24,8-1.45,8.2-5.06,9.17-9.41.72-5.79,1-8.92,1.93,0,1.21-14-6-28.47-6-45.6-2.41-43.19-2.41-43.19,23.88,15.92,30.16,20,19.06,4.82,23.88-1.21.73-19.54-6.75-24.37-28.72-12.31-37.4-18.58-10.86-12.55-18.34-14.72S184,180.82,184,180.82Z" style="fill:#FF725E"></path><g style="clip-path:url(#clip-path-8--inject-1)"><path d="M254.74,242.62c-7.89-6.56-34-28.31-38.24-32.12-5-4.5-8.5-19-8.5-19s-2.5-6-2.5-2,2.5,16,2.5,16-17.5-17.5-16-12c.13.49.3,1.46.5,2.83,4.51,8.89,9.61,20.12,12,29.61,4.82,19.07,3.86,31.37,3.86,54.78s-6.52,59.11-5.55,61.28,6.75-.24,8-1.45,8.2-5.06,9.17-9.41.72-5.79,1-8.92,1.93,0,1.21-14-6-28.47-6-45.6-2.41-43.19-2.41-43.19,23.88,15.92,30.16,20A22.75,22.75,0,0,0,254.74,242.62Z" style="opacity:0.2"></path></g><path d="M184,180.82s15.68,26.06,20.51,45.12,3.86,31.37,3.86,54.78-6.52,59.11-5.55,61.28,6.75-.24,8-1.45,8.2-5.06,9.17-9.41.72-5.79,1-8.92,1.93,0,1.21-14-6-28.47-6-45.6-2.41-43.19-2.41-43.19,23.88,15.92,30.16,20,19.06,4.82,23.88-1.21.73-19.54-6.75-24.37-28.72-12.31-37.4-18.58-10.86-12.55-18.34-14.72S184,180.82,184,180.82Z" style="fill:none;stroke:#263238;stroke-linecap:round;stroke-linejoin:round"></path><path d="M163,103.85a56.84,56.84,0,0,0-9.78,2.89c-4.17,1.9-8.42,5.45-14.75,14.12-9.17,12.54-5.79,32.09,2.17,40.05a67.82,67.82,0,0,0,18,12.43s-.24,10.14,0,13,18.1,33.06,21.24,29.92,4.34-28,4.34-28l1.93-16.16S198.08,154,197.59,142c-.24-6-4.15-11.42-6.64-18.65s-4.39-10.38-8.15-13.9C177,104,168.47,103.28,163,103.85Z" style="fill:#fff"></path><g style="clip-path:url(#clip-path-9--inject-1)"><path d="M181.86,175.35c.41-5.29,0-7.33-4.88-6.92s-15.47-8.55-17.91-14.25-6.93-13.84-4.89-21.58c1.76-6.67-2.54-20.59-3.76-24.3-3.34,2.18-7,5.82-11.93,12.56-9.17,12.54-5.79,32.09,2.17,40.05a67.82,67.82,0,0,0,18,12.43s-.24,10.14,0,13c.19,2.24,10.86,20.7,17.17,27.58C177.64,203.14,181.55,179.41,181.86,175.35Z" style="opacity:0.2"></path><path d="M176.05,125.33a3,3,0,0,0,1.68,1.69c1.45.72,5.55.72,3.86,3.62a22.88,22.88,0,0,1-3.13,4.34l1,2.9" style="fill:none;stroke:#263238;stroke-linecap:round;stroke-linejoin:round"></path><path d="M185.7,143.18s-2.9-4.58-11.34-4.1-11.59,8.45-9.17,12.31,6.51-4.59,12.54-4.35,5.8,4.11,8.45,1.93S185.7,143.18,185.7,143.18Z" style="fill:#263238;stroke:#263238;stroke-linecap:round;stroke-linejoin:round"></path><path d="M155.41,126.35s-1.68-7,6.28-9.41" style="fill:none;stroke:#263238;stroke-linecap:round;stroke-linejoin:round"></path><path d="M180.43,114.39s6-1,8.2,8.2" style="fill:none;stroke:#263238;stroke-linecap:round;stroke-linejoin:round"></path><path d="M164.62,146.6c2.24-1.95,8.75-6.09,18.84-5.47a14.7,14.7,0,0,0-9.1-2C168.72,139.4,165.45,143.06,164.62,146.6Z" style="fill:#fff;stroke:#263238;stroke-linecap:round;stroke-linejoin:round"></path><path d="M186.18,149a2.7,2.7,0,0,0,1-1.92c-12.48-4.74-19.43,1-22.14,4.16a1.62,1.62,0,0,0,.1.18c2.41,3.86,6.51-4.59,12.54-4.35S183.53,151.15,186.18,149Z" style="fill:#fff;stroke:#263238;stroke-linecap:round;stroke-linejoin:round"></path><path d="M159,132s3.17-6.33,9.12-3.16" style="fill:none;stroke:#263238;stroke-linecap:round;stroke-linejoin:round;stroke-width:2px"></path><path d="M181.74,126.55s3-3.54,6.7.38" style="fill:none;stroke:#263238;stroke-linecap:round;stroke-linejoin:round;stroke-width:2px"></path></g><path d="M163,103.85a56.84,56.84,0,0,0-9.78,2.89c-4.17,1.9-8.42,5.45-14.75,14.12-9.17,12.54-5.79,32.09,2.17,40.05a67.82,67.82,0,0,0,18,12.43s-.24,10.14,0,13,18.1,33.06,21.24,29.92,4.34-28,4.34-28l1.93-16.16S198.08,154,197.59,142c-.24-6-4.15-11.42-6.64-18.65s-4.39-10.38-8.15-13.9C177,104,168.47,103.28,163,103.85Z" style="fill:none;stroke:#263238;stroke-linecap:round;stroke-linejoin:round"></path><path d="M146,161.15c-2.65-6.27-2.17-9.65.72-10.13s2.66-1,2.42-3.38-3.62-7,0-15.2-1.45-5.31-4.11-7.24-6.83-7.57,7.07-17.9c-4.33,2.14-7.8,5.64-13.58,13.56-9.17,12.54-5.79,32.09,2.17,40.05,5.08,5.08,8.94,9.24,13.59,11,1.4.21,2.25.26,2.25.26S148.62,167.42,146,161.15Z" style="fill:#263238;stroke:#263238;stroke-linecap:round;stroke-linejoin:round"></path><path d="M152.24,153.43s-3.13-5.31-8.2-1.93-2.9,8.93,2.17,12.31,8.93,1.93,9.65-1.69" style="fill:#fff"></path><g style="clip-path:url(#clip-path-10--inject-1)"><path d="M152.24,153.43s-3.13-5.31-8.2-1.93-2.9,8.93,2.17,12.31,8.93,1.93,9.65-1.69" style="opacity:0.2"></path></g><path d="M152.24,153.43s-3.13-5.31-8.2-1.93-2.9,8.93,2.17,12.31,8.93,1.93,9.65-1.69" style="fill:none;stroke:#263238;stroke-linecap:round;stroke-linejoin:round"></path><path d="M183.53,98.55c-2.06-2.17-7.56-3.64-13.61-3.17l-.27-.23s-11.81.41-18.73,5.29-4.07,11.4-4.07,11.4L149,112c1.9,2.56,1.89,8.84,1.5,11.63s4.07-3.26,5.7-8.14a57.49,57.49,0,0,1,2.22-5.64l.36-.17c-.78,2.42-1.28,5.49,1.49,5,4.47-.81,11.8-5.7,11.8-5.7s-2.44,2.85,3.26,2.85c3.33,0,6.1.14,8.16-.32a5.52,5.52,0,0,0,1.7-.43C190.76,108.68,188.11,103.37,183.53,98.55Z" style="fill:#263238;stroke:#263238;stroke-linecap:round;stroke-linejoin:round"></path><path d="M175.08,183.48s-.24,1.45,2.65,4.34,8.93,6,8.93,6l-4.1,2.18a19.33,19.33,0,0,0-.72,4.82c0,2.41-1,.72-2.42.48s-2.41-.72-3.37.24-6.53,7.35-6.53,7.35-.84-1.68-1.8-3.37a2.9,2.9,0,0,1-.36-2.77s1.45-8.69.24-14.23-2.41-7-1.21-7.73,5.07-2.65,6-1.44A48.5,48.5,0,0,1,175.08,183.48Z" style="fill:#fff;stroke:#263238;stroke-linecap:round;stroke-linejoin:round"></path><path d="M169.05,183s3.86,5.3,4.58,10.61" style="fill:none;stroke:#263238;stroke-linecap:round;stroke-linejoin:round"></path><path d="M154.57,198.92s1.45-11.82.73-18.82-.49-12.79,1-14,13.27-8,14.48-6.28a8.56,8.56,0,0,1,1.44,3.38s2.9,1.69,2.9,3.38v2.65a10.54,10.54,0,0,1,1.45,4.1c0,1.69.24,9.9-.48,10.38s-2.18,0-2.9-1.21-4.1.49-4.1.49,2.17,8.68.24,12.3-9.41,13-9.41,13l-6.27-8.2Z" style="fill:#fff"></path><g style="clip-path:url(#clip-path-11--inject-1)"><path d="M166.39,194.89c0-5.7-2.44-11.81-5.7-17.91s-4.47-9-4.47-9l-1,.53a45.16,45.16,0,0,0,.06,11.55c.72,7-.73,18.82-.73,18.82l-1,1.21,6,7.91C161.76,205.24,166.39,199.43,166.39,194.89Z" style="opacity:0.2"></path></g><path d="M154.57,198.92s1.45-11.82.73-18.82-.49-12.79,1-14,13.27-8,14.48-6.28a8.56,8.56,0,0,1,1.44,3.38s2.9,1.69,2.9,3.38v2.65a10.54,10.54,0,0,1,1.45,4.1c0,1.69.24,9.9-.48,10.38s-2.18,0-2.9-1.21-4.1.49-4.1.49,2.17,8.68.24,12.3-9.41,13-9.41,13l-6.27-8.2Z" style="fill:none;stroke:#263238;stroke-linecap:round;stroke-linejoin:round"></path><line x1="172.18" y1="163.21" x2="160.36" y2="168.52" style="fill:none;stroke:#263238;stroke-linecap:round;stroke-linejoin:round"></line><line x1="175.08" y1="169.24" x2="163.02" y2="174.07" style="fill:none;stroke:#263238;stroke-linecap:round;stroke-linejoin:round"></line><path d="M176.77,175.52s-1.45-1.45-2.9-.49-8.68,2.42-8.68,2.42" style="fill:none;stroke:#263238;stroke-linecap:round;stroke-linejoin:round"></path><polygon points="154.57 196.75 162.29 205.92 154.57 218.22 146.85 208.81 154.57 196.75" style="fill:#fff;stroke:#263238;stroke-linecap:round;stroke-linejoin:round"></polygon><path d="M116.93,238.49l28.85-32.31a1.84,1.84,0,0,1,2.68-.05l9.47,9.86a1.82,1.82,0,0,1,.22,2.24c-2.89,4.57-13.54,21.31-23.85,35.94-12.06,17.14-17.37,23.89-22.44,25.82s-8.2-4.58-8-13.75,4.1-21,4.1-21" style="fill:#FF725E"></path><g style="clip-path:url(#clip-path-12--inject-1)"><path d="M154.15,212.05c-5.9,8.91-29.5,44.23-38.65,52.95-4.42,4.21-8.3,5.93-11.32,6.52.87,6.21,3.66,10,7.68,8.47,5.07-1.93,10.38-8.68,22.44-25.82,10.31-14.63,21-31.37,23.85-35.94a1.82,1.82,0,0,0-.22-2.24Z" style="opacity:0.2"></path></g><path d="M116.93,238.49l28.85-32.31a1.84,1.84,0,0,1,2.68-.05l9.47,9.86a1.82,1.82,0,0,1,.22,2.24c-2.89,4.57-13.54,21.31-23.85,35.94-12.06,17.14-17.37,23.89-22.44,25.82s-8.2-4.58-8-13.75,4.1-21,4.1-21" style="fill:none;stroke:#263238;stroke-linecap:round;stroke-linejoin:round"></path><path d="M226.71,158.87a15.7,15.7,0,0,0-7-5.62c-1.21-1.4-3.82-4.46-6.31-7.65-3.37-4.35-5.55-7.48-6.27-7.48s-2.41,1.69-1.45,4.1,4.83,6.51,4.83,6.51l1.11,7.06c-.39,1.51-.75,3.08-1.59,3.8-1.69,1.45-3.38-4.58-6.52-8.68s-5.31-.49-4.58,3.13,4.58,6.76,6.27,9.65,8.28,7.41,10.21,7.89,5.22,1,6.18,1.28,3.88,3.86,5.81,4.83,5.55-1,6-7.48C233.47,170.21,230.58,164.66,226.71,158.87Z" style="fill:#fff;stroke:#263238;stroke-linecap:round;stroke-linejoin:round"></path><path d="M230.82,184l-5.07-6.51s1.45-4.35,4.1-5.79,3.62-1.45,3.62-1.45l7.48,8.68S234,179.62,230.82,184Z" style="fill:#fff;stroke:#263238;stroke-linecap:round;stroke-linejoin:round"></path><path d="M247,234.87s-12.54-36.43-14.47-40.78-3.86-8.92-2.42-11.58,6.76-7.72,9.41-6,18.58,22.2,24.85,33.06,9.17,16.16,7,22.92-5.55,10.37-14.23,9.65" style="fill:#FF725E;stroke:#263238;stroke-linecap:round;stroke-linejoin:round"></path><path d="M224.3,156.21s-2.89-7-4.1-8.68-7.48-5.07-8.44-5.55a1.54,1.54,0,0,0-1.69,2.41c1,1.69,5.55,3.86,5.55,3.86l3.13,7.48Z" style="fill:#fff;stroke:#263238;stroke-linecap:round;stroke-linejoin:round"></path><path d="M226.47,160.07s-2.17-5.55-3.13-7.23-6.52-1-8.21-.73-7.72,6-6.27,7.24,4.1-1.93,5.07-2.65,4.82-1,4.82-1l2.42,3.14" style="fill:#fff;stroke:#263238;stroke-linecap:round;stroke-linejoin:round"></path><path d="M227.44,159.83s-4.34-2.65-6.27-2.65-7.73,3.62-9.17,5.55-.49,2.41.48,2.41,8-3.38,8-3.38a20.11,20.11,0,0,0-.72,6c.24,2.65,3.38,3.86,6.75,3.86" style="fill:#fff;stroke:#263238;stroke-linecap:round;stroke-linejoin:round"></path></g><g id="Mug--inject-1"><path d="M412.45,420H408a2.5,2.5,0,0,1,0-5h4.43a7.24,7.24,0,0,0,7.07-5.76l.87-4.28a5.64,5.64,0,0,0-5.52-6.78h-4.75a2.5,2.5,0,0,1,0-5h4.75a10.65,10.65,0,0,1,10.42,12.78l-.87,4.28A12.26,12.26,0,0,1,412.45,420Z" style="fill:#FF725E;stroke:#263238;stroke-linecap:round;stroke-linejoin:round"></path><path d="M410.62,422.09H390.11a1.18,1.18,0,0,1-1.18-1.09l-2.64-31.13a1.19,1.19,0,0,1,1.18-1.29h25.79a1.19,1.19,0,0,1,1.18,1.29L411.81,421A1.2,1.2,0,0,1,410.62,422.09Z" style="fill:#FF725E;stroke:#263238;stroke-linecap:round;stroke-linejoin:round"></path><path d="M398.22,387.78c-.67-6.48,2.7-9.16,7.18-12.56s5.66-7.88,5.42-13.25" style="fill:none;stroke:#263238;stroke-linecap:round;stroke-linejoin:round"></path><path d="M393,381.94s-.62-2.46,2.46-7.07,6.45-6.14,7.06-12" style="fill:none;stroke:#263238;stroke-linecap:round;stroke-linejoin:round"></path></g><g id="Plants--inject-1"><path d="M106.33,222.37s0-5.68-8-13.64-13.07-12.5-13.07-12.5-4,13.07,3.41,21a139.83,139.83,0,0,0,17.62,15.35Z" style="fill:#FF725E"></path><path d="M94.78,257.86s0-5.68-8-13.64-13.07-12.5-13.07-12.5-4,13.07,3.41,21a140.25,140.25,0,0,0,17.62,15.34Z" style="fill:#FF725E"></path><path d="M105.83,232.05s.6-5.65,9.35-12.72,14.32-11.06,14.32-11.06,2.57,13.42-5.61,20.55a139.25,139.25,0,0,1-19.14,13.4Z" style="fill:#FF725E"></path><path d="M91.88,274s1.19-5.56,10.64-11.67,15.4-9.49,15.4-9.49,1.15,13.61-7.74,19.85A139.66,139.66,0,0,1,89.73,284Z" style="fill:#FF725E"></path><path d="M94.5,319.67s0-5.69,8-13.64,13.07-12.51,13.07-12.51,4,13.08-3.41,21A139.83,139.83,0,0,1,94.5,329.9Z" style="fill:#FF725E"></path><path d="M94.37,330.82s.81-5.62-5.94-14.63S77.27,302,77.27,302s-5.8,12.37.39,21.3A140.2,140.2,0,0,0,92.91,341Z" style="fill:#FF725E"></path><path d="M86.52,363.88s0-5.68,8-13.64,13.07-12.5,13.07-12.5,4,13.07-3.41,21a140.25,140.25,0,0,1-17.62,15.34Z" style="fill:#FF725E"></path><path d="M91.83,393.85s-1.43-5.49,4.25-15.21,9.48-15.4,9.48-15.4,7.16,11.64,2,21.2a139.89,139.89,0,0,1-13.15,19.31Z" style="fill:#FF725E"></path><path d="M107.05,220.91a164,164,0,0,1-2.18,17.65c-3.15,16.25-11,26.73-14.15,41.41s5.88,33.59,3.46,52.44-9.75,29.34-7.66,41.92S99.88,422.2,99.88,422.2" style="fill:none;stroke:#263238;stroke-linecap:round;stroke-linejoin:round;stroke-width:0.75px"></path><line x1="105.75" y1="235.83" x2="114.32" y2="229.25" style="fill:none;stroke:#263238;stroke-linecap:round;stroke-linejoin:round;stroke-width:0.75px"></line><line x1="106.15" y1="228.25" x2="102.56" y2="221.87" style="fill:none;stroke:#263238;stroke-linecap:round;stroke-linejoin:round;stroke-width:0.75px"></line><path d="M91.19,279.3s7.18-5.39,14.56-10.77" style="fill:none;stroke:#263238;stroke-linecap:round;stroke-linejoin:round;stroke-width:0.75px"></path><path d="M94.4,267.08S88.8,256.37,82,248.59" style="fill:none;stroke:#263238;stroke-linecap:round;stroke-linejoin:round;stroke-width:0.75px"></path><path d="M94.78,327.75a88.94,88.94,0,0,1,15.36-20.54" style="fill:none;stroke:#263238;stroke-linecap:round;stroke-linejoin:round;stroke-width:0.75px"></path><path d="M93.39,335.73A100.16,100.16,0,0,0,85.61,321c-4.19-6.18-4.79-7-4.79-7" style="fill:none;stroke:#263238;stroke-linecap:round;stroke-linejoin:round;stroke-width:0.75px"></path><path d="M86.52,374.33A95.37,95.37,0,0,1,93,361.25a84.31,84.31,0,0,1,8.37-11" style="fill:none;stroke:#263238;stroke-linecap:round;stroke-linejoin:round;stroke-width:0.75px"></path><path d="M94.43,403.75s-.84-6.8,2.15-12.59,6.38-13.36,7.77-16.35" style="fill:none;stroke:#263238;stroke-linecap:round;stroke-linejoin:round;stroke-width:0.75px"></path><path d="M54.23,298.29s-.62-3.56,3.5-9.41,6.84-9.26,6.84-9.26,3.92,7.76.15,13.55a88.66,88.66,0,0,1-9.38,11.54Z" style="fill:#FF725E"></path><path d="M65.32,319.3s-.62-3.57,3.51-9.42,6.84-9.26,6.84-9.26,3.91,7.77.14,13.56a89,89,0,0,1-9.38,11.53Z" style="fill:#FF725E"></path><path d="M55.59,304.31s-1-3.48-7.25-7S38.16,292,38.16,292s-.15,8.69,5.76,12.28a88.8,88.8,0,0,0,13.45,6.32Z" style="fill:#FF725E"></path><path d="M68.89,329.08s-1.35-3.36-7.94-6.16-10.69-4.28-10.69-4.28.76,8.66,7,11.6a88.33,88.33,0,0,0,14,4.88Z" style="fill:#FF725E"></path><path d="M72.2,358s-.61-3.56-6.46-7.69-9.56-6.42-9.56-6.42-1.07,8.63,4.42,12.82a88.78,88.78,0,0,0,12.72,7.71Z" style="fill:#FF725E"></path><path d="M73.5,365s-1.12-3.44,2.13-9.82,5.46-10.13,5.46-10.13,5,7.13,2.07,13.39a89.32,89.32,0,0,1-7.65,12.76Z" style="fill:#FF725E"></path><path d="M83.49,393.75s.41-3.59,6-8.05,9.17-6.95,9.17-6.95,1.56,8.55-3.68,13.05a89.18,89.18,0,0,1-12.26,8.42Z" style="fill:#FF725E"></path><path d="M82,384.88s-.62-3.56-6.47-7.69S66,370.77,66,370.77s-1.07,8.63,4.42,12.82a88.78,88.78,0,0,0,12.72,7.71Z" style="fill:#FF725E"></path><path d="M81.93,404.26s.31-3.61-4.31-9.08S70,386.55,70,386.55s-3.22,8.07,1,13.51a88.58,88.58,0,0,0,10.35,10.68Z" style="fill:#FF725E"></path><path d="M53.62,297.46a102.14,102.14,0,0,0,3.28,10.83c3.73,9.85,9.8,15.57,13.37,24.43s0,21.7,3.52,33.26,9.3,17.34,9.35,25.45S80,422.11,80,422.11" style="fill:none;stroke:#263238;stroke-linecap:round;stroke-linejoin:round;stroke-width:0.75px"></path><line x1="56.05" y1="306.67" x2="49.96" y2="303.47" style="fill:none;stroke:#263238;stroke-linecap:round;stroke-linejoin:round;stroke-width:0.75px"></line><line x1="54.98" y1="301.96" x2="56.53" y2="297.57" style="fill:none;stroke:#263238;stroke-linecap:round;stroke-linejoin:round;stroke-width:0.75px"></line><path d="M69.9,332.35s-5.09-2.6-10.3-5.17" style="fill:none;stroke:#263238;stroke-linecap:round;stroke-linejoin:round;stroke-width:0.75px"></path><path d="M66.39,324.6a83.22,83.22,0,0,1,5.92-12.5" style="fill:none;stroke:#263238;stroke-linecap:round;stroke-linejoin:round;stroke-width:0.75px"></path><path d="M72.91,363.12a56.75,56.75,0,0,0-11.86-11.21" style="fill:none;stroke:#263238;stroke-linecap:round;stroke-linejoin:round;stroke-width:0.75px"></path><path d="M74.65,368a64.19,64.19,0,0,1,3.27-10.09c2-4.33,2.25-4.9,2.25-4.9" style="fill:none;stroke:#263238;stroke-linecap:round;stroke-linejoin:round;stroke-width:0.75px"></path><path d="M82.87,397.59s4-4.95,6.55-6.8a34.77,34.77,0,0,0,4.25-3.7" style="fill:none;stroke:#263238;stroke-linecap:round;stroke-linejoin:round;stroke-width:0.75px"></path><path d="M83.14,391.43a60,60,0,0,0-5.47-7.49,53.23,53.23,0,0,0-6.44-6" style="fill:none;stroke:#263238;stroke-linecap:round;stroke-linejoin:round;stroke-width:0.75px"></path><path d="M81.38,410.74a15.45,15.45,0,0,0-2.72-7.66c-2.5-3.3-5.45-7.68-6.65-9.41" style="fill:none;stroke:#263238;stroke-linecap:round;stroke-linejoin:round;stroke-width:0.75px"></path></g><g id="Device--inject-1"><rect x="114.54" y="417.5" width="157.12" height="4.6" transform="translate(386.21 839.6) rotate(180)" style="fill:#fff;stroke:#263238;stroke-linecap:round;stroke-linejoin:round"></rect><polygon points="89.2 354.94 177.35 354.94 206.23 422.04 118.08 422.04 89.2 354.94" style="fill:#fff;stroke:#263238;stroke-linecap:round;stroke-linejoin:round"></polygon><polygon points="85.54 354.94 173.69 354.94 202.57 422.04 114.42 422.04 85.54 354.94" style="fill:#fff;stroke:#263238;stroke-linecap:round;stroke-linejoin:round"></polygon><path d="M114.43,422h88.14l-26.41-61.36c-7.92,32.84-27.7,23-50.48,31.09a36.83,36.83,0,0,0-18.2,14.14Z" style="fill:#263238"></path><path d="M145.86,386.46c3,5,2.33,11-1.48,13.21s-9.32,0-12.32-5-2.33-10.95,1.48-13.22S142.87,381.43,145.86,386.46Z" style="fill:#fff;stroke:#263238;stroke-linecap:round;stroke-linejoin:round"></path></g><g id="Table--inject-1"><line x1="432.97" y1="422.1" x2="59.93" y2="422.1" style="fill:#fff;stroke:#263238;stroke-linecap:round;stroke-linejoin:round"></line></g></svg>